<svg width="46" height="45" viewBox="0 0 46 45" fill="none" xmlns="http://www.w3.org/2000/svg">
<g clip-path="url(#clip0_156_763)">
<path d="M42.6895 22.9379C42.6895 21.3192 42.5555 20.1379 42.2654 18.913H23.4038V26.2191H34.4751C34.252 28.0348 33.0467 30.7692 30.368 32.6066L30.3305 32.8512L36.2942 37.3788L36.7073 37.4192C40.5019 33.9848 42.6895 28.9316 42.6895 22.9379Z" fill="#4285F4"/>
<path d="M23.4026 42.1872C28.8266 42.1872 33.3801 40.4371 36.7061 37.4184L30.3668 32.6057C28.6704 33.7651 26.3936 34.5745 23.4026 34.5745C18.0901 34.5745 13.5813 31.1402 11.974 26.3933L11.7384 26.4129L5.53727 31.1161L5.45618 31.337C8.7597 37.7683 15.5454 42.1872 23.4026 42.1872Z" fill="#34A853"/>
<path d="M11.9751 26.3937C11.551 25.1687 11.3055 23.8561 11.3055 22.4999C11.3055 21.1436 11.551 19.8311 11.9528 18.6062L11.9415 18.3453L5.66269 13.5666L5.45726 13.6624C4.09571 16.3311 3.31445 19.3281 3.31445 22.4999C3.31445 25.6718 4.09571 28.6686 5.45726 31.3374L11.9751 26.3937Z" fill="#FBBC05"/>
<path d="M23.4027 10.4249C27.175 10.4249 29.7195 12.0218 31.1705 13.3563L36.8401 7.93125C33.3581 4.75938 28.8267 2.8125 23.4027 2.8125C15.5455 2.8125 8.75972 7.23122 5.45618 13.6624L11.9517 18.6062C13.5813 13.8594 18.0902 10.4249 23.4027 10.4249Z" fill="#EB4335"/>
</g>
<defs>
<clipPath id="clip0_156_763">
<rect width="45" height="45" fill="white" transform="translate(0.5)"/>
</clipPath>
</defs>
</svg>
