<svg width="88" height="88" viewBox="0 0 88 88" fill="none" xmlns="http://www.w3.org/2000/svg">
<circle cx="43.908" cy="43.8172" r="43.8172" fill="black"/>
<path d="M54.2034 59.7976H33.6131C30.7679 59.7976 28.4434 57.4731 28.4434 54.6278V34.0376C28.4434 31.1923 30.7679 28.8678 33.6131 28.8678H54.2034C57.0486 28.8678 59.3731 31.1923 59.3731 34.0376V54.6278C59.3731 57.4858 57.0613 59.7976 54.2034 59.7976Z" fill="white"/>
<path d="M43.9144 52.2779C41.7932 52.2779 39.7989 51.4522 38.3001 49.9534C36.8012 48.4545 35.9756 46.4603 35.9756 44.339C35.9756 42.2177 36.8012 40.2235 38.3001 38.7246C39.7989 37.2258 41.7932 36.4001 43.9144 36.4001C46.0357 36.4001 48.0299 37.2258 49.5288 38.7246C51.0277 40.2235 51.8533 42.2177 51.8533 44.339C51.8533 46.4603 51.0277 48.4545 49.5288 49.9534C48.0172 51.4522 46.0357 52.2779 43.9144 52.2779ZM43.9144 38.0895C40.4722 38.0895 37.665 40.884 37.665 44.339C37.665 47.7813 40.4595 50.5885 43.9144 50.5885C47.3567 50.5885 50.1639 47.794 50.1639 44.339C50.1512 40.8967 47.3567 38.0895 43.9144 38.0895Z" fill="black"/>
<path d="M53.4008 36.1393C54.2426 36.1393 54.9251 35.4568 54.9251 34.615C54.9251 33.7731 54.2426 33.0907 53.4008 33.0907C52.5589 33.0907 51.8765 33.7731 51.8765 34.615C51.8765 35.4568 52.5589 36.1393 53.4008 36.1393Z" fill="black"/>
</svg>
