<svg width="42" height="42" viewBox="0 0 42 42" fill="none" xmlns="http://www.w3.org/2000/svg">
<ellipse cx="21" cy="20.9229" rx="21" ry="20.9229" fill="#313EF7"/>
<path d="M12.9238 14.7446C12.9238 14.2027 13.1148 13.7556 13.4969 13.4034C13.8789 13.0511 14.3755 12.875 14.9867 12.875C15.587 12.875 16.0727 13.0484 16.4438 13.3952C16.8258 13.7529 17.0169 14.2189 17.0169 14.7933C17.0169 15.3136 16.8313 15.7471 16.4602 16.0939C16.0782 16.4516 15.5761 16.6304 14.954 16.6304H14.9376C14.3373 16.6304 13.8516 16.4516 13.4805 16.0939C13.1094 15.7362 12.9238 15.2865 12.9238 14.7446ZM13.1367 28.9695V18.1098H16.7713V28.9695H13.1367ZM18.7851 28.9695H22.4197V22.9056C22.4197 22.5263 22.4633 22.2336 22.5506 22.0277C22.7034 21.6592 22.9354 21.3476 23.2465 21.0929C23.5575 20.8383 23.9477 20.7109 24.4171 20.7109C25.6395 20.7109 26.2508 21.5292 26.2508 23.1657V28.9695H29.8854V22.743C29.8854 21.139 29.5034 19.9224 28.7393 19.0933C27.9753 18.2642 26.9657 17.8497 25.7105 17.8497C24.3025 17.8497 23.2055 18.4512 22.4197 19.6542V19.6867H22.4033L22.4197 19.6542V18.1098H18.7851C18.8069 18.4566 18.8178 19.535 18.8178 21.3449C18.8178 23.1549 18.8069 25.6964 18.7851 28.9695Z" fill="white"/>
</svg>
