<svg width="89" height="88" viewBox="0 0 89 88" fill="none" xmlns="http://www.w3.org/2000/svg">
<circle cx="44.6058" cy="43.8172" r="43.8172" fill="black"/>
<path d="M34.7115 38.1564H27.1714V62.2013H34.7115V38.1564Z" fill="white"/>
<path d="M55.1083 37.6351C54.8303 37.6004 54.535 37.583 54.2396 37.5656C50.0179 37.3919 47.6377 39.8937 46.8038 40.9708C46.5779 41.2662 46.4737 41.4399 46.4737 41.4399V38.2258H39.2637V62.2707H46.4737H46.8038C46.8038 59.8211 46.8038 57.3888 46.8038 54.9391C46.8038 53.6187 46.8038 52.2983 46.8038 50.978C46.8038 49.3448 46.6822 47.6075 47.4987 46.1134C48.1937 44.8625 49.4445 44.237 50.8518 44.237C55.0214 44.237 55.1083 48.0071 55.1083 48.3546C55.1083 48.3719 55.1083 48.3893 55.1083 48.3893V62.375H62.6484V46.6867C62.6484 41.3183 59.9208 38.1563 55.1083 37.6351Z" fill="white"/>
<path d="M30.9416 35.0465C33.3596 35.0465 35.3197 33.0864 35.3197 30.6684C35.3197 28.2504 33.3596 26.2903 30.9416 26.2903C28.5236 26.2903 26.5635 28.2504 26.5635 30.6684C26.5635 33.0864 28.5236 35.0465 30.9416 35.0465Z" fill="white"/>
</svg>
