<svg width="19" height="18" viewBox="0 0 19 18" fill="none" xmlns="http://www.w3.org/2000/svg">
<path d="M2.49854 9L1.71767 8.3753L1.21791 9L1.71767 9.62469L2.49854 9ZM9.24854 10C9.80082 10 10.2485 9.55228 10.2485 9C10.2485 8.44772 9.80082 8 9.24854 8V10ZM4.71767 4.6253L1.71767 8.3753L3.2794 9.62469L6.2794 5.8747L4.71767 4.6253ZM1.71767 9.62469L4.71767 13.3747L6.2794 12.1253L3.2794 8.3753L1.71767 9.62469ZM2.49854 10H9.24854V8H2.49854V10Z" fill="#EB4335"/>
<path d="M8.49854 6.09895V5.95258C8.49854 4.75758 8.49854 4.16008 8.76488 3.69705C8.88542 3.48747 9.04298 3.30149 9.22988 3.14812C9.64283 2.80928 10.2322 2.71106 11.4109 2.5146V2.5146C13.7994 2.11652 14.9936 1.91749 15.8825 2.3797C16.2805 2.58661 16.627 2.88013 16.8965 3.23864C17.4985 4.03948 17.4985 5.25017 17.4985 7.67157V10.3284C17.4985 12.7498 17.4985 13.9605 16.8965 14.7614C16.627 15.1199 16.2805 15.4134 15.8825 15.6203C14.9936 16.0825 13.7989 15.8834 11.4096 15.4852V15.4852C10.2323 15.289 9.64373 15.1909 9.2312 14.853C9.04328 14.699 8.88497 14.5121 8.76403 14.3015C8.49854 13.839 8.49854 13.2425 8.49854 12.0495V12.0495" stroke="#EB4335" stroke-width="2"/>
</svg>
