<svg width="88" height="88" viewBox="0 0 88 88" fill="none" xmlns="http://www.w3.org/2000/svg">
<circle cx="44.1824" cy="43.8172" r="43.8172" fill="black"/>
<path fill-rule="evenodd" clip-rule="evenodd" d="M41.5191 50.9519C42.6614 50.9887 43.6932 52.4995 46.7148 52.4995C52.3895 52.5364 56.2955 48.1882 57.5115 42.4766C61.7491 22.6888 32.8965 21.1043 29.9486 37.3915C29.2484 41.2238 30.3907 45.6456 33.3755 47.0827C35.6601 48.1882 35.8075 45.0192 35.1074 43.6558C32.0121 37.6126 35.7338 32.1589 40.5979 30.6113C45.1671 29.1373 48.4098 30.3534 50.8787 32.8959C54.0477 36.1755 52.6106 45.0929 48.852 47.9303C47.5255 48.9252 45.0934 49.1463 43.8406 47.9671C41.2612 45.5719 45.2408 40.4868 44.6513 36.7651C44.0617 33.0802 38.2396 33.6329 37.9448 39.0497C37.7974 41.8134 38.608 42.624 37.9816 45.3877C36.9867 49.8096 33.9651 58.8375 36.1023 62.375C39.2345 60.9011 40.7821 52.0573 41.5191 50.9519Z" fill="white"/>
</svg>
