<svg width="88" height="88" viewBox="0 0 88 88" fill="none" xmlns="http://www.w3.org/2000/svg">
<circle cx="44.0008" cy="43.8172" r="43.8172" fill="black"/>
<path d="M61.3592 53.5953C61.2265 53.5422 61.1071 53.5025 61.001 53.4494C58.017 51.8049 56.0011 49.7359 54.834 47.1365C54.1577 45.6246 54.3964 44.7493 55.6828 44.0994C56.4255 43.728 57.1815 43.2108 58.0436 42.4946C58.4547 42.1498 59.3167 41.4469 58.7597 40.3992C58.1894 39.3514 57.208 39.4973 56.5184 39.6963C55.9481 39.8687 55.3911 40.0544 54.8871 40.2798C54.4892 40.4522 54.224 40.492 54.0913 40.3992C53.9587 40.3063 53.9057 40.0411 53.9322 39.6167C54.0118 38.3965 53.9985 37.1764 53.972 35.8236C53.9057 31.5531 51.6909 28.3171 47.9111 26.9511C43.7997 25.4657 39.1578 26.5399 36.3595 29.6168C34.264 31.9245 34.0651 34.63 34.1579 37.2029C34.1579 37.5345 34.1977 37.8926 34.2375 38.2507C34.3171 38.9934 34.3966 39.7626 34.0916 40.1737C33.7202 40.6512 33.2561 40.4522 32.5399 40.0809C32.1951 39.9085 31.8503 39.7228 31.4922 39.6697C30.6964 39.5371 29.8874 39.4841 29.3834 40.3594C28.8264 41.3275 29.4895 42.0305 30.0333 42.4681C30.5903 42.919 31.2004 43.3169 31.7972 43.7015C31.9829 43.8209 32.1818 43.9535 32.3675 44.0729C33.9324 45.1073 34.0386 45.4919 33.2561 47.2161C32.2879 49.3646 30.6964 51.1417 28.2561 52.7995C28.0174 52.9587 27.6858 53.0913 27.3675 53.2107C26.6514 53.4892 25.8291 53.8208 25.975 54.6032C26.1474 55.5051 27.2349 55.7836 28.1898 56.0223C28.4153 56.0754 28.6407 56.1284 28.8397 56.1947C28.959 56.2345 29.0917 56.261 29.211 56.3008C29.9272 56.4865 30.6168 56.6589 30.6964 57.521C30.829 58.8605 31.7972 59.0064 32.6327 58.9666C34.821 58.887 36.9563 59.5236 39.3435 60.9692C40.8952 61.9108 42.4867 62.375 44.065 62.375C45.5504 62.375 47.0225 61.9639 48.4416 61.1416C50.4177 60.001 52.8314 58.834 55.7359 58.9533C56.7306 58.9931 57.3008 58.5554 57.3672 57.7199C57.4335 56.8446 57.9905 56.5926 58.7863 56.3406C58.9985 56.2743 59.2106 56.208 59.4228 56.1417C59.9003 55.9958 60.4042 55.8499 60.8684 55.6377C60.9613 55.5979 61.0674 55.5581 61.1868 55.5183C61.6377 55.3592 62.208 55.1603 62.2345 54.5104C62.261 53.9136 61.7438 53.7279 61.3592 53.5953Z" fill="white"/>
</svg>
