<svg width="27" height="28" viewBox="0 0 27 28" fill="none" xmlns="http://www.w3.org/2000/svg">
<path fill-rule="evenodd" clip-rule="evenodd" d="M5.98926 18.7076C6.35979 19.2736 6.79646 19.7976 7.29239 20.2676C8.52124 21.4324 10.0613 22.216 11.7262 22.5238C13.3911 22.8316 15.1095 22.6504 16.6735 22.002C18.2376 21.3536 19.5802 20.2659 20.539 18.8704C21.4978 17.475 22.0317 15.8315 22.0761 14.139C22.1204 12.4465 21.6734 10.7774 20.789 9.33358C19.9046 7.88981 18.6208 6.73324 17.0929 6.00381C16.0588 5.51016 14.943 5.22646 13.8093 5.16287L14.4172 7.43169C15.0141 7.53291 15.5973 7.71667 16.1494 7.98022C17.2953 8.5273 18.2582 9.39472 18.9214 10.4776C19.5847 11.5604 19.92 12.8122 19.8867 14.0816C19.8535 15.351 19.4531 16.5836 18.734 17.6302C18.0149 18.6768 17.0079 19.4926 15.8348 19.9789C14.6618 20.4651 13.373 20.6011 12.1243 20.3702C10.8756 20.1394 9.72062 19.5516 8.79898 18.6781C8.60654 18.4957 8.426 18.3025 8.25807 18.0996L5.98926 18.7076Z" fill="#313EF7"/>
<path d="M6.65239 5.2215C7.50307 4.56875 8.44341 4.0457 9.44259 3.66755C9.9018 3.49376 10.1314 3.40686 10.3477 3.51769C10.5639 3.62852 10.6319 3.88218 10.7678 4.38949L13.0352 12.8513C13.1688 13.3499 13.2356 13.5992 13.1222 13.7957C13.0088 13.9921 12.7595 14.0589 12.2608 14.1925L3.79902 16.4598C3.2917 16.5957 3.03805 16.6637 2.83394 16.5318C2.62983 16.4 2.59028 16.1577 2.51119 15.6731C2.33908 14.6187 2.32189 13.5428 2.46185 12.4797C2.64955 11.054 3.11623 9.67921 3.83524 8.43384C4.55426 7.18847 5.51152 6.09692 6.65239 5.2215Z" stroke="#313EF7" stroke-width="2.19008"/>
</svg>
