<svg width="89" height="88" viewBox="0 0 89 88" fill="none" xmlns="http://www.w3.org/2000/svg">
<circle cx="44.303" cy="43.8172" r="43.8172" fill="black"/>
<path d="M51.824 27.663L50.9534 26.2903H45.6849V38.6535L45.667 50.7296C45.6759 50.8193 45.6849 50.918 45.6849 51.0077C45.6849 54.0312 43.2257 56.4985 40.1921 56.4985C37.1584 56.4985 34.6992 54.0402 34.6992 51.0077C34.6992 47.9842 37.1584 45.5169 40.1921 45.5169C40.8203 45.5169 41.4307 45.6336 41.9961 45.8309V39.8019C41.4127 39.7032 40.8114 39.6494 40.1921 39.6494C33.9363 39.6583 28.8384 44.7543 28.8384 51.0167C28.8384 57.279 33.9363 62.375 40.201 62.375C46.4658 62.375 51.5637 57.279 51.5637 51.0167V36.6528C53.8345 38.9226 56.7694 41.1387 60.0184 41.8475V35.6838C56.4911 34.1227 52.9818 29.5112 51.824 27.663Z" fill="white"/>
</svg>
