<svg width="89" height="88" viewBox="0 0 89 88" fill="none" xmlns="http://www.w3.org/2000/svg">
<circle cx="44.5149" cy="43.8172" r="43.8172" fill="black"/>
<path d="M26.9878 55.3644C30.8029 55.5791 34.1391 54.6873 37.3928 52.3255C34.1061 51.764 31.8269 50.2611 30.5882 47.1561C31.5462 47.024 32.3885 47.2717 33.3794 46.8753C30.1423 45.455 28.0448 43.3244 27.9622 39.6414C28.9862 39.724 29.7625 40.4011 30.9846 40.302C28.0118 37.3952 27.1034 34.2242 28.9697 30.376C32.0747 33.9434 35.7082 36.3713 40.1509 37.5108C40.3986 37.5769 40.6299 37.643 40.8776 37.6925C42.0172 37.9568 43.3715 38.5183 44.0651 38.4357C45.2543 38.2871 44.0652 36.9163 44.3624 35.1326C45.3038 29.5833 51.4147 27.0563 55.94 30.3099C57.2613 31.2679 58.3018 31.2513 59.6065 30.6733C60.2837 30.376 60.9773 30.0787 61.7866 29.7319C61.6049 31.3174 60.3828 32.1927 59.4083 33.3654C60.5149 33.6131 61.4067 33.2993 62.4307 32.969C62.0839 34.1086 61.2251 34.7527 60.4488 35.3803C59.6396 36.0244 59.3258 36.7016 59.2927 37.7586C58.7972 53.7624 40.6134 66.1328 28.1769 56.2893C26.9713 55.3314 28.1439 56.2893 26.9878 55.3644Z" fill="white"/>
</svg>
