<svg width="42" height="42" viewBox="0 0 42 42" fill="none" xmlns="http://www.w3.org/2000/svg">
<ellipse cx="21" cy="20.9229" rx="21" ry="20.9229" fill="#313EF7"/>
<path d="M31.5 14.7803C30.7191 15.1035 29.8869 15.3176 29.0194 15.4216C29.9119 14.919 30.5931 14.1291 30.9133 13.1771C30.0812 13.6451 29.1624 13.9756 28.1833 14.1601C27.3932 13.3665 26.2671 12.875 25.0386 12.875C22.6551 12.875 20.7362 14.6999 20.7362 16.937C20.7362 17.2589 20.7651 17.5684 20.8359 17.8631C17.2568 17.6984 14.0897 16.0803 11.9621 13.6153C11.5907 14.2232 11.3728 14.919 11.3728 15.668C11.3728 17.0744 12.1406 18.3211 13.2851 19.0429C12.5934 19.0305 11.9149 18.8411 11.34 18.5427C11.34 18.5551 11.34 18.5712 11.34 18.5873C11.34 20.5607 12.8323 22.1999 14.7892 22.5775C14.4388 22.6679 14.0569 22.7112 13.6605 22.7112C13.3849 22.7112 13.1066 22.6964 12.8454 22.6419C13.4032 24.2501 14.9861 25.4324 16.8683 25.4708C15.4035 26.5516 13.5437 27.2028 11.5303 27.2028C11.1773 27.2028 10.8386 27.188 10.5 27.1471C12.4071 28.3071 14.6672 28.9695 17.1045 28.9695C25.0267 28.9695 29.358 22.7793 29.358 17.4136C29.358 17.2341 29.3514 17.0608 29.3423 16.8887C30.1967 16.3167 30.9146 15.6024 31.5 14.7803Z" fill="white"/>
</svg>
