<svg width="89" height="88" viewBox="0 0 89 88" fill="none" xmlns="http://www.w3.org/2000/svg">
<circle cx="44.3943" cy="43.8172" r="43.8172" fill="black"/>
<path d="M26.8672 37.2588L28.5058 39.2549C28.5058 39.2549 31.5895 36.5288 32.3194 38.3462C33.0494 40.1636 37.9504 55.6116 37.9504 55.6116C37.9504 55.6116 39.4103 59.7976 42.6727 59.7976C45.6371 59.7976 48.0951 57.0417 50.0019 55.1051C55.1413 49.9061 60.4743 43.4856 61.4575 35.9776C61.9044 32.5663 60.221 28.9762 56.4224 28.8719C54.4709 28.8123 52.4599 29.4082 50.8659 30.5105C48.6612 32.0449 47.4098 34.5029 46.8586 37.08C46.8586 37.08 49.7635 35.0838 51.2234 37.4375C52.1023 38.8676 51.4915 40.6999 50.8063 42.0853C50.1508 43.4111 49.406 44.7071 48.6016 45.9585C48.0355 46.8374 47.1566 48.342 45.95 48.342C44.4901 48.342 43.9836 44.7816 43.775 43.8133C43.0004 40.402 43.0302 36.8565 42.0023 33.5048C41.3916 31.4937 40.0657 28.3803 37.4141 29.0655C31.7831 30.5254 26.8672 37.2588 26.8672 37.2588Z" fill="white"/>
</svg>
