<svg width="88" height="88" viewBox="0 0 88 88" fill="none" xmlns="http://www.w3.org/2000/svg">
<circle cx="44.0916" cy="43.8172" r="43.8172" fill="black"/>
<path d="M60.9061 36.672C59.9892 34.646 58.673 32.8269 57.0019 31.2593C55.3307 29.7065 53.3934 28.479 51.2342 27.6213C49.0011 26.7339 46.6349 26.2903 44.1947 26.2903C41.7546 26.2903 39.3884 26.7339 37.1553 27.6213C34.9961 28.479 33.0587 29.6917 31.3876 31.2593C29.7165 32.8269 28.4003 34.646 27.4834 36.672C26.5369 38.7721 26.0488 41.02 26.0488 43.327C26.0488 47.3644 27.5573 51.239 30.3228 54.3151L28.8439 62.375L36.7116 58.8701C39.063 59.8757 41.5623 60.3785 44.1799 60.3785C46.6201 60.3785 48.9863 59.9349 51.2194 59.0475C53.3786 58.1898 55.3159 56.9771 56.9871 55.4095C58.6582 53.8419 59.9744 52.0228 60.8913 49.9968C61.8378 47.8968 62.3259 45.6489 62.3259 43.3418C62.3407 41.02 61.8526 38.7868 60.9061 36.672Z" fill="white"/>
<path d="M51.5593 46.7283C50.7903 46.3438 50.2284 46.1072 49.8291 45.9593C49.5777 45.8706 48.9861 45.6044 48.7791 45.7671C48.1284 46.2995 47.4333 47.8079 46.6938 48.0889C44.86 47.734 43.1593 46.4769 41.8283 45.1903C41.2368 44.6283 40.1424 43.0311 39.9058 42.6022C39.8614 42.1586 40.66 41.567 40.8374 41.2269C41.7544 40.1917 41.0593 39.541 40.941 39.1121C40.734 38.6684 40.379 37.8698 40.0685 37.2191C39.8023 36.7902 39.7431 36.1543 39.2698 35.9177C37.2585 34.8825 36.1051 36.9529 35.6318 38.0325C32.7776 44.9093 49.9326 57.9974 53.4228 48.9762C53.6002 48.1924 53.5263 47.8966 53.2601 47.5417C52.7277 47.172 52.1065 47.0093 51.5593 46.7283Z" fill="black"/>
</svg>
